<?xml version="1.0" encoding="utf-8"?>
<!-- Generator: Adobe Illustrator 23.0.6, SVG Export Plug-In . SVG Version: 6.00 Build 0)  -->
<svg version="1.1" id="Capa_1" xmlns="http://www.w3.org/2000/svg" xmlns:xlink="http://www.w3.org/1999/xlink" x="0px" y="0px"
	 width="512px" height="512px" viewBox="0 0 512 512" enable-background="new 0 0 512 512" xml:space="preserve">
<g>
	<path d="M24.705,276.589h466.702c11.372,0,20.59-9.224,20.59-20.59c0-11.366-9.217-20.59-20.59-20.59H24.705
		c-11.372,0-20.59,9.217-20.59,20.59C4.115,267.372,13.332,276.589,24.705,276.589z"/>
	<path d="M6.037,270.563l201.773,201.781c8.044,8.037,21.07,8.037,29.114,0c8.044-8.044,8.044-21.084,0-29.121L49.708,256
		L236.924,68.776c8.044-8.037,8.044-21.077,0-29.114c-4.022-4.022-9.286-6.033-14.557-6.033s-10.535,2.011-14.557,6.033
		L6.036,241.442C-2.008,249.486-2.008,262.527,6.037,270.563z"/>
</g>
</svg>
