<?xml version="1.0" encoding="utf-8"?>
<!-- Generator: Adobe Illustrator 23.0.6, SVG Export Plug-In . SVG Version: 6.00 Build 0)  -->
<svg version="1.1" id="Capa_1" xmlns="http://www.w3.org/2000/svg" xmlns:xlink="http://www.w3.org/1999/xlink" x="0px" y="0px"
	 width="512px" height="512px" viewBox="0 0 512 512" enable-background="new 0 0 512 512" xml:space="preserve">
<path d="M488.115,232.727l-193.281,0c-8.595,0-15.562-6.967-15.562-15.562V23.885c0-12.642-9.823-23.438-22.458-23.871
	c-13.218-0.452-24.088,10.142-24.088,23.259v193.893c0,8.595-6.967,15.562-15.562,15.562l-193.281,0
	c-12.642,0-23.438,9.823-23.871,22.458c-0.452,13.218,10.142,24.088,23.259,24.088h193.893c8.595,0,15.562,6.967,15.562,15.562
	l0,193.281c0,12.642,9.823,23.438,22.458,23.871c13.218,0.452,24.088-10.142,24.088-23.259V294.835
	c0-8.595,6.967-15.562,15.562-15.562h193.893c13.117,0,23.711-10.87,23.259-24.088C511.554,242.55,500.757,232.727,488.115,232.727z
	"/>
</svg>
