<?xml version="1.0" encoding="utf-8"?>
<!-- Generator: Adobe Illustrator 23.0.6, SVG Export Plug-In . SVG Version: 6.00 Build 0)  -->
<svg version="1.1" id="Capa_1" xmlns="http://www.w3.org/2000/svg" xmlns:xlink="http://www.w3.org/1999/xlink" x="0px" y="0px"
	 width="512px" height="512px" viewBox="0 0 512 512" enable-background="new 0 0 512 512" xml:space="preserve">
<path fill="#1D1D1B" d="M0,488.881L0,488.881C0,501.649,10.351,512,23.119,512h465.761C501.649,512,512,501.649,512,488.881v0
	c0-12.768-10.351-23.119-23.119-23.119H23.119C10.351,465.761,0,476.112,0,488.881z"/>
<path fill="#1D1D1B" d="M0,256L0,256c0,12.769,10.351,23.119,23.119,23.119h465.761C501.649,279.119,512,268.769,512,256v0
	c0-12.768-10.351-23.119-23.119-23.119H23.119C10.351,232.881,0,243.231,0,256z"/>
<path fill="#1D1D1B" d="M0,23.119L0,23.119c0,12.769,10.351,23.119,23.119,23.119h465.761c12.768,0,23.119-10.351,23.119-23.119v0
	C512,10.351,501.649,0,488.881,0H23.119C10.351,0,0,10.351,0,23.119z"/>
</svg>
