<?xml version="1.0" encoding="utf-8"?>
<!-- Generator: Adobe Illustrator 23.0.6, SVG Export Plug-In . SVG Version: 6.00 Build 0)  -->
<svg version="1.1" id="Capa_1" xmlns="http://www.w3.org/2000/svg" xmlns:xlink="http://www.w3.org/1999/xlink" x="0px" y="0px"
	 width="512px" height="512px" viewBox="0 0 512 512" enable-background="new 0 0 512 512" xml:space="preserve">
<g fill="#ffb400">
	<path d="M128,174.829c-46.48,0-84.293,37.813-84.293,84.293S81.52,343.415,128,343.415s84.293-37.813,84.293-84.293
		S174.48,174.829,128,174.829z M128,305.951c-25.825,0-46.829-21.005-46.829-46.829s21.005-46.829,46.829-46.829
		s46.829,21.005,46.829,46.829S153.825,305.951,128,305.951z"/>
	<path d="M384,0c-46.48,0-84.293,37.813-84.293,84.293S337.52,168.586,384,168.586s84.293-37.813,84.293-84.293S430.48,0,384,0z
		 M384,131.122c-25.825,0-46.829-21.004-46.829-46.829S358.176,37.464,384,37.464s46.829,21.004,46.829,46.829
		C430.829,110.117,409.825,131.122,384,131.122z"/>
	<path d="M384,343.415c-46.48,0-84.293,37.813-84.293,84.293S337.52,512,384,512s84.293-37.813,84.293-84.293
		S430.48,343.415,384,343.415z M384,474.537c-25.825,0-46.829-21.004-46.829-46.829s21.005-46.829,46.829-46.829
		s46.829,21.004,46.829,46.829C430.829,453.532,409.825,474.537,384,474.537z"/>
	
		<rect x="165.439" y="156.443" transform="matrix(0.8397 -0.5431 0.5431 0.8397 -53.5899 168.8167)" width="187.39" height="37.465"/>
	
		<rect x="238.195" y="252.559" transform="matrix(0.5444 -0.8388 0.8388 0.5444 -171.2887 372.1212)" width="37.462" height="182.376"/>
</g>
</svg>
